#!OML:ASF F:\VICON\USERDATA\INSTALL\rory3\rory3.ASF
:FULLY-SPECIFIED
:DEGREES
265
root 3.67564 17.8351 28.5753 -2.68308 -3.5757 -7.60324
lowerback 11.3767 1.61279 6.6007
upperback 0.489739 3.12719 2.20142
thorax -5.64583 1.39052 -1.89228
lowerneck -17.2305 -3.14409 -1.87837
upperneck 16.5733 -4.01236 0.96216
head 8.02669 -1.92576 0.151625
rclavicle 4.79172e-014 3.37188e-014
rhumerus -24.6147 -8.16234 -83.2549
rradius 31.9866
rwrist -1.74266
rhand -18.5042 23.6754
rfingers 7.12502
rthumb 7.78368 -6.16133
lclavicle 4.79172e-014 3.37188e-014
lhumerus -37.6084 -0.144452 84.6918
lradius 30.5575
lwrist 7.30281
lhand -26.6993 21.4311
lfingers 7.12502
lthumb -0.129623 51.4108
rfemur 0.0882623 8.04876 35.25
rtibia 28.4488
rfoot -20.109 -8.76614
rtoes 6.46416
lfemur -29.1581 -0.134461 -10.8539
ltibia 46.5633
lfoot -7.07763 0.144374
ltoes -1.72938
266
root 3.68153 17.827 28.7709 -2.50407 -3.48598 -7.37636
lowerback 10.9987 1.67128 6.45533
upperback 0.554983 3.14464 2.1192
thorax -5.36579 1.41278 -1.88363
lowerneck -17.3629 -3.19175 -1.93164
upperneck 16.5697 -4.06148 0.965466
head 8.05058 -1.95122 0.153426
rclavicle -2.53194e-014 -2.20403e-014
rhumerus -24.187 -7.68314 -83.2757
rradius 32.3185
rwrist -1.99187
rhand -18.4591 23.6623
rfingers 7.12502
rthumb 7.82721 -6.17278
lclavicle -2.53194e-014 -2.20403e-014
lhumerus -37.6544 0.243047 84.5922
lradius 30.2613
lwrist 6.94887
lhand -26.4918 21.8543
lfingers 7.12502
lthumb 0.070734 51.834
rfemur 0.79962 7.8685 34.9839
rtibia 28.0719
rfoot -20.2582 -8.74331
rtoes 6.72362
lfemur -29.1767 -0.514583 -11.0299
ltibia 43.5515
lfoot -6.65607 0.58432
ltoes -1.40359
267
root 3.68343 17.81 28.9611 -2.30743 -3.58446 -7.46971
lowerback 10.8104 1.77475 6.56295
upperback 0.476822 3.28373 2.12159
thorax -5.32661 1.47855 -1.95463
lowerneck -17.1754 -3.22174 -2.09343
upperneck 16.4984 -4.09611 1.12858
head 8.00181 -1.96274 0.233151
rclavicle -3.78467e-015 -1.59525e-014
rhumerus -23.9612 -7.32353 -83.2721
rradius 32.5393
rwrist -2.24633
rhand -18.3406 23.8563
rfingers 7.12502
rthumb 7.94158 -5.97453
lclavicle -3.78467e-015 -1.59525e-014
lhumerus -37.7728 0.6144 84.4872
lradius 29.6485
lwrist 6.75027
lhand -26.4278 22.069
lfingers 7.12502
lthumb 0.132516 52.0487
rfemur 1.561 7.83266 35.1027
rtibia 27.58
rfoot -20.4653 -8.76978
rtoes 5.76213
lfemur -29.1901 -0.680558 -10.7992
ltibia 40.4724
lfoot -6.09699 0.899846
ltoes -3.04337
268
root 3.6798 17.7927 29.1396 -2.0762 -3.82704 -7.95862
lowerback 10.7728 1.87761 6.94189
upperback 0.427111 3.47351 2.25308
thorax -5.33023 1.56267 -2.05346
lowerneck -16.9108 -3.17916 -2.15218
upperneck 16.2355 -4.04894 1.25387
head 7.87131 -1.93411 0.295923
rclavicle 2.15759e-014 1.49585e-014
rhumerus -23.4876 -7.30975 -83.2673
rradius 32.5503
rwrist -2.15298
rhand -18.3983 24.222
rfingers 7.12502
rthumb 7.88592 -5.6109
lclavicle 2.15759e-014 1.49585e-014
lhumerus -37.8143 1.1473 84.3315
lradius 29.266
lwrist 6.16963
lhand -25.9683 23.3414
lfingers 7.12502
lthumb 0.576374 53.3204
rfemur 2.2498 8.09892 35.716
rtibia 27.0438
rfoot -20.5666 -8.84249
rtoes 6.02043
lfemur -29.1636 -0.942946 -9.98818
ltibia 37.4144
lfoot -5.72225 1.29454
ltoes -3.57898
269
root 3.67951 17.7701 29.3267 -1.9621 -3.88676 -8.26489
lowerback 10.6622 1.92426 7.21127
upperback 0.5371 3.55282 2.30233
thorax -5.1325 1.60494 -2.15441
lowerneck -17.0231 -3.17007 -1.91723
upperneck 15.9371 -4.06554 1.1361
head 7.78414 -1.93957 0.21765
rclavicle -1.77415e-014 1.66979e-014
rhumerus -22.8742 -7.04196 -83.3544
rradius 32.6457
rwrist -2.38667
rhand -18.49 24.3874
rfingers 7.12502
rthumb 7.79738 -5.44886
lclavicle -1.77415e-014 1.66979e-014
lhumerus -37.718 1.6236 84.1044
lradius 29.4188
lwrist 4.81032
lhand -24.3162 27.9547
lfingers 7.12502
lthumb 2.17202 57.9234
rfemur 3.12344 8.0629 36.07
rtibia 26.4636
rfoot -20.8991 -8.71893
rtoes 6.79291
lfemur -28.9826 -1.3302 -9.45141
ltibia 34.4285
lfoot -6.07222 1.84867
ltoes -0.654165
270
root 3.68338 17.7382 29.5149 -1.80333 -3.84699 -8.22802
lowerback 10.4658 1.99734 7.18202
upperback 0.555068 3.62423 2.26308
thorax -4.99626 1.64596 -2.17915
lowerneck -17.2735 -3.26592 -1.90376
upperneck 15.9292 -4.2009 1.16724
head 7.82745 -1.9983 0.205947
rclavicle -1.60053e-014 2.89232e-014
rhumerus -22.4525 -6.74946 -83.3692
rradius 32.7599
rwrist -2.55262
rhand -18.6273 24.2603
rfingers 7.12502
rthumb 7.66488 -5.58077
lclavicle -1.60053e-014 2.89232e-014
lhumerus -37.8989 1.73305 84.1134
lradius 29.101
lwrist 5.06987
lhand -25.2008 26.3385
lfingers 7.12502
lthumb 1.31758 56.3142
rfemur 4.02245 8.02181 36.0191
rtibia 25.8922
rfoot -21.1913 -8.42872
rtoes 7.07179
lfemur -28.8928 -1.59574 -9.42747
ltibia 31.4656
lfoot -5.86531 2.19086
ltoes -5.88163
271
root 3.6894 17.71 29.6981 -1.56797 -3.90909 -8.33992
lowerback 10.3807 2.06442 7.34222
upperback 0.427111 3.73187 2.25413
thorax -5.06417 1.68996 -2.29057
lowerneck -17.4116 -3.28248 -2.01166
upperneck 16.1233 -4.21513 1.26286
head 7.92098 -2.00022 0.249525
rclavicle -3.80797e-014 -9.44227e-015
rhumerus -22.2122 -6.86032 -83.3314
rradius 32.7523
rwrist -2.25622
rhand -18.6021 24.2892
rfingers 7.12502
rthumb 7.68925 -5.55097
lclavicle -3.80797e-014 -9.44227e-015
lhumerus -38.2234 1.98731 83.9941
lradius 28.4728
lwrist 5.23629
lhand -25.8615 23.7218
lfingers 7.12502
lthumb 0.679484 53.7005
rfemur 4.77916 8.06596 36.1212
rtibia 25.3794
rfoot -21.4098 -8.2158
rtoes 6.67758
lfemur -28.7438 -1.89355 -9.13215
ltibia 28.4024
lfoot -6.87096 2.62127
ltoes -4.6629
272
root 3.69533 17.6996 29.893 -1.41809 -4.02649 -8.59819
lowerback 10.3001 2.13304 7.62184
upperback 0.420615 3.8505 2.30344
thorax -5.00103 1.74447 -2.40522
lowerneck -17.6911 -3.20907 -1.95507
upperneck 16.2945 -4.1267 1.26239
head 8.02406 -1.95196 0.245159
rclavicle -1.45113e-014 9.14409e-015
rhumerus -21.8423 -7.03037 -83.2913
rradius 32.7548
rwrist -2.02771
rhand -18.5681 24.2286
rfingers 7.12502
rthumb 7.72205 -5.61043
lclavicle -1.45113e-014 9.14409e-015
lhumerus -38.4179 2.03057 84.0649
lradius 27.9867
lwrist 6.06692
lhand -26.8875 21.1411
lfingers 7.12502
lthumb -0.311407 51.1206
rfemur 5.4434 7.72188 36.3171
rtibia 24.9256
rfoot -21.456 -8.09956
rtoes 5.46094
lfemur -28.3383 -2.42468 -8.55443
ltibia 25.2848
lfoot -6.97573 3.20066
ltoes -4.80649
273
root 3.70899 17.695 30.0932 -1.22417 -4.06363 -8.45647
lowerback 9.98804 2.21181 7.64201
upperback 0.479848 3.91577 2.19059
thorax -4.7475 1.78661 -2.52453
lowerneck -18.0812 -3.19999 -1.78894
upperneck 16.5047 -4.13244 1.15169
head 8.1563 -1.95176 0.173026
rclavicle -1.01039e-014 2.44505e-014
rhumerus -21.4204 -7.15673 -83.2758
rradius 32.8795
rwrist -1.9523
rhand -18.2647 23.8712
rfingers 7.12502
rthumb 8.01482 -5.95681
lclavicle -1.01039e-014 2.44505e-014
lhumerus -38.4176 2.29726 83.953
lradius 27.7361
lwrist 5.90989
lhand -26.8986 21.3196
lfingers 7.12502
lthumb -0.322138 51.2991
rfemur 6.07699 7.33746 35.9996
rtibia 24.5082
rfoot -21.4451 -7.8646
rtoes 4.82146
lfemur -27.9906 -3.43974 -8.32165
ltibia 22.2491
lfoot -6.85244 4.13147
ltoes -5.08751
274
root 3.7202 17.6795 30.2956 -1.07402 -4.2659 -8.41245
lowerback 9.76909 2.30892 7.63346
upperback 0.413822 4.02516 2.16938
thorax -4.68292 1.84183 -2.54542
lowerneck -18.6705 -3.24818 -1.60628
upperneck 17.2705 -4.17867 0.800851
head 8.50624 -1.99099 0.00401442
rclavicle 1.40485e-014 -1.48592e-014
rhumerus -21.1819 -7.09248 -83.2405
rradius 32.8089
rwrist -1.96
rhand -18.2462 23.4349
rfingers 7.12502
rthumb 8.0327 -6.39246
lclavicle 1.40485e-014 -1.48592e-014
lhumerus -38.708 2.8658 83.6487
lradius 27.8041
lwrist 4.10952
lhand -24.6374 25.844
lfingers 7.12502
lthumb 1.86175 55.8157
rfemur 6.81748 7.18923 35.8306
rtibia 24.2376
rfoot -21.4802 -7.66795
rtoes 3.73479
lfemur -27.5156 -4.69356 -7.81561
ltibia 19.2992
lfoot -6.55243 5.34696
ltoes -6.25442
275
root 3.72896 17.6555 30.4954 -1.02952 -4.67535 -8.75585
lowerback 9.83128 2.43012 7.95515
upperback 0.329959 4.23653 2.22882
thorax -4.76845 1.93371 -2.69238
lowerneck -18.7301 -3.24543 -1.33479
upperneck 17.5265 -4.20414 0.564253
head 8.59213 -2.00861 -0.12642
rclavicle -1.75396e-014 7.65321e-015
rhumerus -21.1318 -7.15798 -83.2646
rradius 32.8414
rwrist -1.98278
rhand -18.3231 23.5309
rfingers 7.12502
rthumb 7.95849 -6.29927
lclavicle -1.75396e-014 7.65321e-015
lhumerus -39.166 3.20993 83.475
lradius 27.516
lwrist 4.03917
lhand -25.2289 24.1599
lfingers 7.12502
lthumb 1.29048 54.1358
rfemur 7.5995 7.19479 36.1114
rtibia 24.0807
rfoot -21.7132 -7.30495
rtoes 2.85348
lfemur -26.8734 -5.52939 -6.93184
ltibia 16.5609
lfoot -6.18125 6.40481
ltoes -7.9263
